HIERARCHY
ROOT joint_Root
{
	OFFSET 0.0 0.0 0.0
	CHANNELS 6 Xposition Yposition Zposition Zrotation Xrotation Yrotation 
	JOINT Hips
	{
		OFFSET -0.726466 93.3139 -2.00062
		CHANNELS 6 Xposition Yposition Zposition Zrotation Xrotation Yrotation 
		JOINT Spine
		{
			OFFSET 15.7357 0.0 0.0
			CHANNELS 6 Xposition Yposition Zposition Zrotation Xrotation Yrotation 
			JOINT Chest
			{
				OFFSET 8.98455 -0.406207 0.0
				CHANNELS 6 Xposition Yposition Zposition Zrotation Xrotation Yrotation 
				JOINT Neck
				{
					OFFSET 16.3773 0.0 0.0
					CHANNELS 6 Xposition Yposition Zposition Zrotation Xrotation Yrotation 
					JOINT Head
					{
						OFFSET 6.45672 0.0 0.0
						CHANNELS 6 Xposition Yposition Zposition Zrotation Xrotation Yrotation 
						End Site
						{
							OFFSET 0.0 0.0 0.0
						}
					}
				}
				JOINT Shoulder_L
				{
					OFFSET 12.9942 -0.242716 4.98039
					CHANNELS 6 Xposition Yposition Zposition Zrotation Xrotation Yrotation 
					JOINT UpperArm_L
					{
						OFFSET 5.34809 0.0 0.0
						CHANNELS 6 Xposition Yposition Zposition Zrotation Xrotation Yrotation 
						JOINT LowerArm_L
						{
							OFFSET 24.3286 1.87007e-05 0.0
							CHANNELS 6 Xposition Yposition Zposition Zrotation Xrotation Yrotation 
							JOINT Hand_L
							{
								OFFSET 22.2916 0.0 0.0
								CHANNELS 6 Xposition Yposition Zposition Zrotation Xrotation Yrotation 
								End Site
								{
									OFFSET 0.0 0.0 0.0
								}
							}
						}
					}
				}
				JOINT Shoulder_R
				{
					OFFSET 12.9945 -0.242716 -4.98039
					CHANNELS 6 Xposition Yposition Zposition Zrotation Xrotation Yrotation 
					JOINT UpperArm_R
					{
						OFFSET -5.34813 0.0 0.0
						CHANNELS 6 Xposition Yposition Zposition Zrotation Xrotation Yrotation 
						JOINT LowerArm_R
						{
							OFFSET -24.3289 0.000322201 0.0
							CHANNELS 6 Xposition Yposition Zposition Zrotation Xrotation Yrotation 
							JOINT Hand_R
							{
								OFFSET -22.2915 -0.000108084 0.0
								CHANNELS 6 Xposition Yposition Zposition Zrotation Xrotation Yrotation 
								End Site
								{
									OFFSET 0.0 0.0 0.0
								}
							}
						}
					}
				}
			}
		}
		JOINT UpperLeg_L
		{
			OFFSET -2.19248 -6.46944 0.0
			CHANNELS 6 Xposition Yposition Zposition Zrotation Xrotation Yrotation 
			JOINT LowerLeg_L
			{
				OFFSET 39.0811 0.0 -1.23785e-05
				CHANNELS 6 Xposition Yposition Zposition Zrotation Xrotation Yrotation 
				JOINT Foot_L
				{
					OFFSET 40.9854 0.0 -1.26872e-05
					CHANNELS 6 Xposition Yposition Zposition Zrotation Xrotation Yrotation 
					JOINT Toes_L
					{
						OFFSET 11.7543 0.0 0.0
						CHANNELS 6 Xposition Yposition Zposition Zrotation Xrotation Yrotation 
						End Site
						{
							OFFSET 0.0 0.0 0.0
						}
					}
				}
			}
		}
		JOINT UpperLeg_R
		{
			OFFSET -2.19251 6.46944 0.0
			CHANNELS 6 Xposition Yposition Zposition Zrotation Xrotation Yrotation 
			JOINT LowerLeg_R
			{
				OFFSET -39.0811 -0.00228153 -0.0401928
				CHANNELS 6 Xposition Yposition Zposition Zrotation Xrotation Yrotation 
				JOINT Foot_R
				{
					OFFSET -40.9854 0.0 0.0
					CHANNELS 6 Xposition Yposition Zposition Zrotation Xrotation Yrotation 
					JOINT Toes_R
					{
						OFFSET -11.7543 0.0 0.0
						CHANNELS 6 Xposition Yposition Zposition Zrotation Xrotation Yrotation 
						End Site
						{
							OFFSET 0.0 0.0 0.0
						}
					}
				}
			}
		}
	}
}
MOTION
Frames:	4
Frame Time:	0.0333333
0.000000 0.000000 0.000000 0.000000 0.000000 -0.000000 -2.102630 92.033300 -1.617730 87.444600 -0.236822 3.461330 15.735700 0.000005 -0.000001 86.150500 84.989400 -85.346000 8.984550 -0.406207 -0.000000 2.238180 -0.711087 1.621330 16.377300 -0.000001 -0.000001 3.696970 -3.989790 1.798300 6.456720 -0.000001 -0.000000 1.737760 -2.772960 -3.908810 12.994200 -0.242716 4.980390 -89.960600 -0.128777 -72.970700 5.348090 -0.000007 -0.000001 -62.563100 47.689400 -16.627900 24.328600 0.000019 0.000005 4.157030 7.601300 -28.786200 22.291600 -0.000001 0.000005 6.590830 5.561480 -9.261760 12.994500 -0.242716 -4.980390 87.953700 5.796620 -70.518300 -5.348130 -0.000001 -0.000004 -66.855000 34.847500 -15.387900 -24.328900 0.000322 -0.000009 2.316430 6.706180 -19.114100 -22.291500 -0.000108 -0.000004 7.488070 5.435520 -4.129750 -2.192480 -6.469440 -0.000000 -168.056000 -14.584800 -2.256960 39.081100 -0.000007 -0.000012 -0.183875 0.476149 21.115300 40.985400 -0.000006 -0.000013 -6.404770 4.374020 -63.535800 11.754300 -0.000000 0.000003 -0.000040 -0.000469 -16.595800 -2.192510 6.469440 -0.000001 175.514000 21.363400 179.411000 -39.081100 -0.002282 -0.040193 -0.036810 0.109895 20.060900 -40.985400 0.000008 0.000006 -1.563940 3.353400 -64.269700 -11.754300 -0.000006 -0.000006 -0.006067 -0.071440 -19.480600
0.000000 0.000000 0.000000 0.000000 0.000000 -0.000000 -2.063610 92.041000 -1.651910 87.458700 -0.250316 3.554450 15.735700 0.000005 -0.000001 86.065400 84.949800 -85.279300 8.984550 -0.406207 -0.000000 2.316170 -0.729913 1.585400 16.377300 -0.000001 -0.000001 3.664460 -3.982470 1.719620 6.456720 -0.000001 -0.000000 1.805170 -2.808860 -4.011530 12.994200 -0.242716 4.980390 -89.942200 -0.188404 -72.952000 5.348090 -0.000007 -0.000001 -58.757200 51.338900 -18.521900 24.328600 0.000019 0.000005 4.392940 7.240350 -31.366000 22.291600 -0.000001 0.000005 6.372460 5.584030 -10.433400 12.994500 -0.242716 -4.980390 87.963900 5.740850 -70.434500 -5.348130 -0.000001 -0.000004 -66.662600 33.230500 -15.245200 -24.328900 0.000322 -0.000009 2.093700 5.749580 -20.059000 -22.291500 -0.000108 -0.000004 8.368410 5.438210 -4.222860 -2.192480 -6.469440 -0.000000 -168.081000 -14.620200 -2.171800 39.081100 -0.000007 -0.000012 -0.181757 0.470864 21.107200 40.985400 -0.000006 -0.000013 -6.362450 4.393540 -63.520500 11.754300 -0.000000 0.000003 -0.000036 -0.000421 -16.594000 -2.192510 6.469440 -0.000001 175.450000 21.376800 179.507000 -39.081100 -0.002282 -0.040193 -0.033965 0.102328 20.020800 -40.985400 0.000008 0.000006 -1.579610 3.370810 -64.218900 -11.754300 -0.000006 -0.000006 -0.006208 -0.072711 -19.532500
0.000000 0.000000 0.000000 0.000000 0.000000 -0.000000 -2.016300 92.027000 -1.683060 87.469800 -0.344608 3.655870 15.735700 0.000005 -0.000001 85.884100 84.925900 -85.103900 8.984550 -0.406207 -0.000000 2.361870 -0.764597 1.574550 16.377300 -0.000001 -0.000001 3.747030 -3.943520 1.650400 6.456720 -0.000001 -0.000000 1.808690 -2.754290 -4.306280 12.994200 -0.242716 4.980390 -89.931100 -0.222787 -72.821500 5.348090 -0.000007 -0.000001 -53.731500 55.148800 -20.888300 24.328600 0.000019 0.000005 4.609270 6.534300 -35.317000 22.291600 -0.000001 0.000005 5.959000 5.603240 -11.541400 12.994500 -0.242716 -4.980390 87.992800 5.614230 -70.290700 -5.348130 -0.000001 -0.000004 -66.180100 31.229400 -15.365700 -24.328900 0.000322 -0.000009 1.876330 4.865710 -21.129600 -22.291500 -0.000108 -0.000004 9.055620 5.439840 -4.280140 -2.192480 -6.469440 -0.000000 -168.100000 -14.630000 -2.137750 39.081100 -0.000007 -0.000012 -0.184721 0.474827 21.257700 40.985400 -0.000006 -0.000013 -6.335960 4.318020 -63.601600 11.754300 -0.000000 0.000003 -0.000038 -0.000448 -16.595000 -2.192510 6.469440 -0.000001 175.355000 21.253300 179.548000 -39.081100 -0.002282 -0.040193 -0.039242 0.116325 20.097300 -40.985400 0.000008 0.000006 -1.705280 3.433020 -64.214600 -11.754300 -0.000006 -0.000006 -0.006163 -0.072310 -19.516100
0.000000 0.000000 0.000000 0.000000 0.000000 -0.000000 -1.977880 92.024800 -1.699360 87.486000 -0.446944 3.816710 15.735700 0.000005 -0.000001 85.704600 84.886200 -84.938600 8.984550 -0.406207 -0.000000 2.438870 -0.801020 1.547410 16.377300 -0.000001 -0.000001 3.822140 -3.861720 1.567540 6.456720 -0.000001 -0.000000 1.880570 -2.696040 -4.607450 12.994200 -0.242716 4.980390 -89.875600 -0.398725 -72.673400 5.348090 -0.000007 -0.000001 -48.635800 58.196200 -23.025400 24.328600 0.000019 0.000005 4.911490 5.815830 -40.298400 22.291600 -0.000001 0.000005 5.432580 5.622180 -12.769400 12.994500 -0.242716 -4.980390 87.984600 5.570180 -70.072500 -5.348130 -0.000001 -0.000004 -65.206200 28.809300 -15.727300 -24.328900 0.000322 -0.000009 1.853650 4.445260 -22.677300 -22.291500 -0.000108 -0.000004 9.357340 5.439830 -4.279810 -2.192480 -6.469440 -0.000000 -168.100000 -14.637500 -1.972230 39.081100 -0.000007 -0.000012 -0.184773 0.474113 21.292300 40.985400 -0.000006 -0.000013 -6.319300 4.254170 -63.633900 11.754300 -0.000000 0.000003 -0.000033 -0.000391 -16.592800 -2.192510 6.469440 -0.000001 175.248000 21.179900 179.700000 -39.081100 -0.002282 -0.040193 -0.040719 0.120429 20.087000 -40.985400 0.000008 0.000006 -1.857040 3.491070 -64.166800 -11.754300 -0.000006 -0.000006 -0.006271 -0.073275 -19.555500
